<svg width="138" height="72" viewBox="0 0 138 72" fill="none" xmlns="http://www.w3.org/2000/svg">
<path d="M6.26953 49H1.73828C1.63411 49 1.58203 48.9349 1.58203 48.8047L1.62109 21.3242C1.62109 21.2201 1.6862 21.168 1.81641 21.168H6.26953C6.39974 21.168 6.46484 21.2201 6.46484 21.3242L6.42578 32.2031H12.4219V21.3242C12.4219 21.2201 12.474 21.168 12.5781 21.168H17.0312C17.1615 21.168 17.2266 21.2201 17.2266 21.3242L17.3047 48.8047C17.3047 48.9349 17.2396 49 17.1094 49H12.6172C12.487 49 12.4219 48.9349 12.4219 48.8047V37.0469H6.42578V48.8047C6.42578 48.9349 6.3737 49 6.26953 49ZM27.9297 49.3906C26.5234 49.3906 25.2214 49.026 24.0234 48.2969C22.8255 47.5677 21.8685 46.5911 21.1523 45.3672C20.4492 44.1302 20.0977 42.7826 20.0977 41.3242L20.1758 21.3242C20.1758 21.2201 20.2279 21.168 20.332 21.168H24.8242C24.9284 21.168 24.9805 21.2201 24.9805 21.3242V41.3242C24.9805 42.2227 25.2669 42.9909 25.8398 43.6289C26.4128 44.2539 27.1094 44.5664 27.9297 44.5664C28.7891 44.5664 29.5052 44.2539 30.0781 43.6289C30.651 42.9909 30.9375 42.2227 30.9375 41.3242V21.3242C30.9375 21.2201 30.9896 21.168 31.0938 21.168H35.5859C35.6901 21.168 35.7422 21.2201 35.7422 21.3242L35.8203 41.3242C35.8203 42.7956 35.4688 44.1497 34.7656 45.3867C34.0495 46.6107 33.099 47.5872 31.9141 48.3164C30.7292 49.0326 29.401 49.3906 27.9297 49.3906ZM43.3203 49H39.3164C39.1081 49 39.0039 48.9089 39.0039 48.7266L38.9648 21.4805C38.9648 21.2721 39.069 21.168 39.2773 21.168H42.8906L49.6484 36.9297L49.4531 21.4805C49.4531 21.2721 49.5703 21.168 49.8047 21.168H53.7695C53.9258 21.168 54.0039 21.2721 54.0039 21.4805L54.043 48.7656C54.043 48.9219 53.9779 49 53.8477 49H50.332L43.3984 34.2734L43.6914 48.6875C43.6914 48.8958 43.5677 49 43.3203 49ZM64.3164 49.3906C62.8971 49.3906 61.5885 49.026 60.3906 48.2969C59.2057 47.5677 58.2552 46.5977 57.5391 45.3867C56.8359 44.1628 56.4844 42.8216 56.4844 41.3633V39.5273C56.4844 39.3841 56.5495 39.3125 56.6797 39.3125H61.1719C61.276 39.3125 61.3281 39.3841 61.3281 39.5273V41.3633C61.3281 42.2357 61.6211 42.9909 62.207 43.6289C62.793 44.2539 63.4961 44.5664 64.3164 44.5664C65.1497 44.5664 65.8594 44.2474 66.4453 43.6094C67.0312 42.9583 67.3242 42.2096 67.3242 41.3633C67.3242 40.3867 66.6862 39.5339 65.4102 38.8047C65.2018 38.6745 64.9284 38.5182 64.5898 38.3359C64.2643 38.1406 63.8737 37.9193 63.418 37.6719C62.9622 37.4245 62.5195 37.1836 62.0898 36.9492C61.6602 36.7018 61.2435 36.4674 60.8398 36.2461C59.3815 35.3867 58.2943 34.3125 57.5781 33.0234C56.875 31.7214 56.5234 30.263 56.5234 28.6484C56.5234 27.1641 56.888 25.8229 57.6172 24.625C58.3464 23.4401 59.2969 22.5026 60.4688 21.8125C61.6536 21.1094 62.9362 20.7578 64.3164 20.7578C65.7357 20.7578 67.0378 21.1094 68.2227 21.8125C69.4076 22.5286 70.3516 23.4792 71.0547 24.6641C71.7708 25.849 72.1289 27.1771 72.1289 28.6484V31.9297C72.1289 32.0339 72.0768 32.0859 71.9727 32.0859H67.4805C67.3763 32.0859 67.3242 32.0339 67.3242 31.9297L67.2852 28.6484C67.2852 27.7109 66.9922 26.9492 66.4062 26.3633C65.8203 25.7773 65.1237 25.4844 64.3164 25.4844C63.4961 25.4844 62.793 25.7969 62.207 26.4219C61.6211 27.0469 61.3281 27.7891 61.3281 28.6484C61.3281 29.5208 61.5104 30.25 61.875 30.8359C62.2526 31.4219 62.9362 31.9818 63.9258 32.5156C64.0299 32.5677 64.2708 32.6979 64.6484 32.9062C65.026 33.1146 65.4427 33.349 65.8984 33.6094C66.3672 33.8568 66.7904 34.0846 67.168 34.293C67.5456 34.4883 67.7734 34.6055 67.8516 34.6445C69.1797 35.3867 70.2279 36.2982 70.9961 37.3789C71.7773 38.4596 72.168 39.7878 72.168 41.3633C72.168 42.8867 71.8164 44.2539 71.1133 45.4648C70.3971 46.6758 69.4466 47.6328 68.2617 48.3359C67.0768 49.0391 65.7617 49.3906 64.3164 49.3906ZM83.0078 37.4375H75.2734C75.1432 37.4375 75.0781 37.3854 75.0781 37.2812V32.9258C75.0781 32.8216 75.1432 32.7695 75.2734 32.7695H83.0078C83.138 32.7695 83.2031 32.8216 83.2031 32.9258V37.2812C83.2031 37.3854 83.138 37.4375 83.0078 37.4375ZM100.137 49H87.207C87.1029 49 87.0508 48.9349 87.0508 48.8047L87.0898 21.3633C87.0898 21.2331 87.1549 21.168 87.2852 21.168H91.7383C91.8685 21.168 91.9336 21.2331 91.9336 21.3633L91.8945 44.0781H100.137C100.267 44.0781 100.332 44.1432 100.332 44.2734V48.8047C100.332 48.9349 100.267 49 100.137 49ZM110.352 49.3906C108.932 49.3906 107.624 49.026 106.426 48.2969C105.241 47.5677 104.284 46.5977 103.555 45.3867C102.839 44.1628 102.48 42.8216 102.48 41.3633L102.52 28.6875C102.52 27.2031 102.878 25.8685 103.594 24.6836C104.297 23.4857 105.247 22.5286 106.445 21.8125C107.643 21.0833 108.945 20.7188 110.352 20.7188C111.81 20.7188 113.118 21.0768 114.277 21.793C115.449 22.5091 116.387 23.4727 117.09 24.6836C117.806 25.8815 118.164 27.2161 118.164 28.6875L118.203 41.3633C118.203 42.8216 117.852 44.1562 117.148 45.3672C116.432 46.5911 115.482 47.5677 114.297 48.2969C113.112 49.026 111.797 49.3906 110.352 49.3906ZM110.352 44.5664C111.159 44.5664 111.862 44.2409 112.461 43.5898C113.06 42.9258 113.359 42.1836 113.359 41.3633L113.32 28.6875C113.32 27.8021 113.04 27.0534 112.48 26.4414C111.921 25.8294 111.211 25.5234 110.352 25.5234C109.531 25.5234 108.828 25.8229 108.242 26.4219C107.656 27.0208 107.363 27.776 107.363 28.6875V41.3633C107.363 42.2357 107.656 42.9909 108.242 43.6289C108.828 44.2539 109.531 44.5664 110.352 44.5664ZM128.555 49.3906C127.109 49.3906 125.807 49.0326 124.648 48.3164C123.477 47.6003 122.533 46.6367 121.816 45.4258C121.113 44.2148 120.762 42.8607 120.762 41.3633V28.6875C120.762 27.2292 121.12 25.901 121.836 24.7031C122.539 23.4922 123.483 22.5286 124.668 21.8125C125.853 21.0833 127.148 20.7188 128.555 20.7188C130.026 20.7188 131.354 21.0703 132.539 21.7734C133.724 22.4896 134.661 23.4466 135.352 24.6445C136.055 25.8424 136.406 27.1901 136.406 28.6875V30.5234C136.406 30.6276 136.341 30.6797 136.211 30.6797H131.719C131.615 30.6797 131.562 30.6276 131.562 30.5234V29C131.562 27.9844 131.276 27.1445 130.703 26.4805C130.13 25.8164 129.414 25.4844 128.555 25.4844C127.786 25.4844 127.103 25.8034 126.504 26.4414C125.905 27.0794 125.605 27.8281 125.605 28.6875V41.3633C125.605 42.2357 125.898 42.9909 126.484 43.6289C127.07 44.2539 127.76 44.5664 128.555 44.5664C129.414 44.5664 130.13 44.2604 130.703 43.6484C131.276 43.0234 131.562 42.2617 131.562 41.3633V39.3906H128.77C128.626 39.3906 128.555 39.3255 128.555 39.1953V34.7227C128.555 34.5924 128.626 34.5273 128.77 34.5273H136.25C136.354 34.5273 136.406 34.5924 136.406 34.7227V41.3633C136.406 42.8607 136.055 44.2148 135.352 45.4258C134.635 46.6367 133.691 47.6003 132.52 48.3164C131.348 49.0326 130.026 49.3906 128.555 49.3906Z" fill="black"/>
<path d="M2.275 63.45H3.485V56.85H2.275V56.3H7.786V55.585H8.336V58.797H7.797V57.301C7.797 57.2423 7.77133 57.18 7.72 57.114C7.676 57.0407 7.61733 56.9783 7.544 56.927C7.47067 56.8757 7.39 56.85 7.302 56.85H4.409V59.853H5.905C5.949 59.853 5.98567 59.842 6.015 59.82C6.05167 59.798 6.081 59.7687 6.103 59.732C6.125 59.6953 6.136 59.6587 6.136 59.622V58.764H6.598V61.47H6.136V60.612C6.136 60.5753 6.125 60.5423 6.103 60.513C6.081 60.4763 6.05167 60.447 6.015 60.425C5.98567 60.3957 5.949 60.381 5.905 60.381H4.409V63.45H6.048V64H2.275V63.45ZM12.0604 64.11C11.5031 64.11 11.0008 63.9853 10.5534 63.736C10.1061 63.4867 9.75411 63.1457 9.49745 62.713C9.24078 62.273 9.11245 61.7853 9.11245 61.25C9.11245 60.7073 9.24078 60.2197 9.49745 59.787C9.75411 59.3543 10.1061 59.0133 10.5534 58.764C11.0008 58.5147 11.5031 58.39 12.0604 58.39C12.6251 58.39 13.1311 58.5147 13.5784 58.764C14.0258 59.0133 14.3778 59.358 14.6344 59.798C14.8911 60.2307 15.0194 60.7147 15.0194 61.25C15.0194 61.7853 14.8911 62.273 14.6344 62.713C14.3778 63.1457 14.0221 63.4867 13.5674 63.736C13.1201 63.9853 12.6178 64.11 12.0604 64.11ZM12.0604 63.604C12.4638 63.604 12.8268 63.5087 13.1494 63.318C13.4721 63.12 13.7214 62.8413 13.8974 62.482C14.0734 62.1227 14.1614 61.712 14.1614 61.25C14.1614 60.788 14.0734 60.3773 13.8974 60.018C13.7214 59.6587 13.4721 59.38 13.1494 59.182C12.8268 58.984 12.4638 58.885 12.0604 58.885C11.6571 58.885 11.2941 58.984 10.9714 59.182C10.6561 59.38 10.4068 59.6587 10.2234 60.018C10.0474 60.3773 9.95945 60.788 9.95945 61.25C9.95945 61.712 10.0474 62.1227 10.2234 62.482C10.4068 62.8413 10.6561 63.12 10.9714 63.318C11.2941 63.5087 11.6571 63.604 12.0604 63.604ZM15.7117 63.494H16.7237V59.006H15.7117V58.5H17.4937V59.567C17.633 59.2077 17.842 58.9253 18.1207 58.72C18.3993 58.5073 18.7073 58.401 19.0447 58.401C19.3747 58.401 19.6643 58.4743 19.9137 58.621C19.987 58.665 20.0567 58.7163 20.1227 58.775C20.1887 58.8337 20.251 58.8887 20.3097 58.94V58.06H20.7937V60.788H20.3097V60.15C20.3097 59.9593 20.2437 59.7723 20.1117 59.589C19.9797 59.3983 19.8037 59.248 19.5837 59.138C19.371 59.0207 19.1473 58.962 18.9127 58.962C18.678 58.962 18.4543 59.0463 18.2417 59.215C18.029 59.3763 17.8567 59.6037 17.7247 59.897C17.5927 60.1903 17.5267 60.5203 17.5267 60.887V63.494H18.8577V64H15.7117V63.494ZM30.8417 63.164C30.8417 63.12 30.8307 63.087 30.8087 63.065C30.7867 63.0357 30.7611 63.0247 30.7317 63.032C30.6657 63.1127 30.5924 63.1897 30.5117 63.263C30.4311 63.3363 30.3467 63.406 30.2587 63.472C29.9507 63.692 29.6244 63.8643 29.2797 63.989C28.9351 64.1063 28.5317 64.165 28.0697 64.165C27.3951 64.165 26.7827 63.9927 26.2327 63.648C25.6901 63.3033 25.2611 62.8267 24.9457 62.218C24.6304 61.602 24.4727 60.9127 24.4727 60.15C24.4727 59.3873 24.6304 58.7017 24.9457 58.093C25.2611 57.477 25.6937 56.9967 26.2437 56.652C26.8011 56.3073 27.4207 56.135 28.1027 56.135C28.5941 56.135 29.0451 56.2157 29.4557 56.377C29.8371 56.5237 30.2001 56.751 30.5447 57.059V55.838H31.0837V59.006H30.5557V58.511C30.5557 58.2177 30.4421 57.9317 30.2147 57.653C29.9874 57.367 29.6867 57.1323 29.3127 56.949C28.9461 56.7657 28.5537 56.674 28.1357 56.674C27.6151 56.674 27.1494 56.8207 26.7387 57.114C26.3281 57.4 26.0091 57.807 25.7817 58.335C25.5544 58.8557 25.4407 59.4607 25.4407 60.15C25.4407 60.8393 25.5544 61.448 25.7817 61.976C26.0164 62.504 26.3354 62.9147 26.7387 63.208C27.1494 63.494 27.6151 63.637 28.1357 63.637C28.5684 63.637 28.9644 63.56 29.3237 63.406C29.6904 63.2447 29.9764 63.0283 30.1817 62.757C30.3944 62.4783 30.5007 62.1703 30.5007 61.833V60.502H28.3667V59.974H32.5577V60.502H31.4247V64.209H30.8417V63.164ZM32.7703 63.494H33.7823V59.006H32.7703V58.5H34.5523V59.567C34.6916 59.2077 34.9006 58.9253 35.1793 58.72C35.4579 58.5073 35.7659 58.401 36.1033 58.401C36.4333 58.401 36.7229 58.4743 36.9723 58.621C37.0456 58.665 37.1153 58.7163 37.1813 58.775C37.2473 58.8337 37.3096 58.8887 37.3683 58.94V58.06H37.8523V60.788H37.3683V60.15C37.3683 59.9593 37.3023 59.7723 37.1703 59.589C37.0383 59.3983 36.8623 59.248 36.6423 59.138C36.4296 59.0207 36.2059 58.962 35.9713 58.962C35.7366 58.962 35.5129 59.0463 35.3003 59.215C35.0876 59.3763 34.9153 59.6037 34.7833 59.897C34.6513 60.1903 34.5853 60.5203 34.5853 60.887V63.494H35.9163V64H32.7703V63.494ZM41.5155 64.11C40.9582 64.11 40.4559 63.9853 40.0085 63.736C39.5612 63.4867 39.2092 63.1457 38.9525 62.713C38.6959 62.273 38.5675 61.7853 38.5675 61.25C38.5675 60.7073 38.6959 60.2197 38.9525 59.787C39.2092 59.3543 39.5612 59.0133 40.0085 58.764C40.4559 58.5147 40.9582 58.39 41.5155 58.39C42.0802 58.39 42.5862 58.5147 43.0335 58.764C43.4809 59.0133 43.8329 59.358 44.0895 59.798C44.3462 60.2307 44.4745 60.7147 44.4745 61.25C44.4745 61.7853 44.3462 62.273 44.0895 62.713C43.8329 63.1457 43.4772 63.4867 43.0225 63.736C42.5752 63.9853 42.0729 64.11 41.5155 64.11ZM41.5155 63.604C41.9189 63.604 42.2819 63.5087 42.6045 63.318C42.9272 63.12 43.1765 62.8413 43.3525 62.482C43.5285 62.1227 43.6165 61.712 43.6165 61.25C43.6165 60.788 43.5285 60.3773 43.3525 60.018C43.1765 59.6587 42.9272 59.38 42.6045 59.182C42.2819 58.984 41.9189 58.885 41.5155 58.885C41.1122 58.885 40.7492 58.984 40.4265 59.182C40.1112 59.38 39.8619 59.6587 39.6785 60.018C39.5025 60.3773 39.4145 60.788 39.4145 61.25C39.4145 61.712 39.5025 62.1227 39.6785 62.482C39.8619 62.8413 40.1112 63.12 40.4265 63.318C40.7492 63.5087 41.1122 63.604 41.5155 63.604ZM45.3428 59.006H44.5287V58.5H47.3338V59.006H46.2008L47.6528 63.318L49.0278 59.765L48.7418 59.006H47.9498V58.5H50.8098V59.006H49.5998L51.2498 63.329L52.7128 59.006H51.4698V58.5H54.0658V59.006H53.2518L51.5688 64H50.6558L49.2918 60.403L47.9058 64H47.0038L45.3428 59.006ZM59.578 64.165C58.9986 64.165 58.4926 64.066 58.06 63.868C57.6346 63.67 57.3046 63.395 57.07 63.043C56.8353 62.6837 56.718 62.2693 56.718 61.8C56.718 61.382 56.8206 61.008 57.026 60.678C57.2386 60.3407 57.532 60.0767 57.906 59.886C58.28 59.6953 58.709 59.5927 59.193 59.578H59.259L57.125 56.861V56.3H62.031V55.585H62.581V58.368H62.042V57.191C62.042 57.1323 62.009 57.0773 61.943 57.026C61.877 56.9673 61.8 56.9197 61.712 56.883C61.6313 56.8463 61.558 56.828 61.492 56.828H58.192L62.328 62.086C62.636 61.6093 62.8303 61.0117 62.911 60.293H61.789V59.787H64.759V60.293H63.714C63.6846 60.293 63.6516 60.3077 63.615 60.337C63.5783 60.3663 63.5416 60.4103 63.505 60.469C63.4683 60.6963 63.4096 60.9163 63.329 61.129C63.153 61.6643 62.9293 62.1153 62.658 62.482L63.395 63.45H64.638V64H62.746L62.031 63.131C61.723 63.4683 61.36 63.725 60.942 63.901C60.524 64.077 60.0693 64.165 59.578 64.165ZM59.567 63.67C60.0143 63.67 60.414 63.5893 60.766 63.428C61.1253 63.2667 61.4406 63.032 61.712 62.724L59.6 60.007H59.391C58.841 60.0363 58.401 60.2123 58.071 60.535C57.741 60.8577 57.576 61.2683 57.576 61.767C57.576 62.3317 57.7556 62.79 58.115 63.142C58.4743 63.494 58.9583 63.67 59.567 63.67ZM67.6842 63.45H68.8942V56.85H67.6842V56.3H73.1952V55.585H73.7452V58.797H73.2062V57.301C73.2062 57.2423 73.1805 57.18 73.1292 57.114C73.0852 57.0407 73.0265 56.9783 72.9532 56.927C72.8798 56.8757 72.7992 56.85 72.7112 56.85H69.8182V59.853H71.3142C71.3582 59.853 71.3948 59.842 71.4242 59.82C71.4608 59.798 71.4902 59.7687 71.5122 59.732C71.5342 59.6953 71.5452 59.6587 71.5452 59.622V58.764H72.0072V61.47H71.5452V60.612C71.5452 60.5753 71.5342 60.5423 71.5122 60.513C71.4902 60.4763 71.4608 60.447 71.4242 60.425C71.3948 60.3957 71.3582 60.381 71.3142 60.381H69.8182V63.45H71.4572V64H67.6842V63.45ZM77.4696 64.11C76.9123 64.11 76.41 63.9853 75.9626 63.736C75.5153 63.4867 75.1633 63.1457 74.9066 62.713C74.65 62.273 74.5216 61.7853 74.5216 61.25C74.5216 60.7073 74.65 60.2197 74.9066 59.787C75.1633 59.3543 75.5153 59.0133 75.9626 58.764C76.41 58.5147 76.9123 58.39 77.4696 58.39C78.0343 58.39 78.5403 58.5147 78.9876 58.764C79.435 59.0133 79.787 59.358 80.0436 59.798C80.3003 60.2307 80.4286 60.7147 80.4286 61.25C80.4286 61.7853 80.3003 62.273 80.0436 62.713C79.787 63.1457 79.4313 63.4867 78.9766 63.736C78.5293 63.9853 78.027 64.11 77.4696 64.11ZM77.4696 63.604C77.873 63.604 78.236 63.5087 78.5586 63.318C78.8813 63.12 79.1306 62.8413 79.3066 62.482C79.4826 62.1227 79.5706 61.712 79.5706 61.25C79.5706 60.788 79.4826 60.3773 79.3066 60.018C79.1306 59.6587 78.8813 59.38 78.5586 59.182C78.236 58.984 77.873 58.885 77.4696 58.885C77.0663 58.885 76.7033 58.984 76.3806 59.182C76.0653 59.38 75.816 59.6587 75.6326 60.018C75.4566 60.3773 75.3686 60.788 75.3686 61.25C75.3686 61.712 75.4566 62.1227 75.6326 62.482C75.816 62.8413 76.0653 63.12 76.3806 63.318C76.7033 63.5087 77.0663 63.604 77.4696 63.604ZM81.1209 63.494H82.1329V59.006H81.1209V58.5H82.9029V59.567C83.0422 59.2077 83.2512 58.9253 83.5299 58.72C83.8085 58.5073 84.1165 58.401 84.4539 58.401C84.7839 58.401 85.0735 58.4743 85.3229 58.621C85.3962 58.665 85.4659 58.7163 85.5319 58.775C85.5979 58.8337 85.6602 58.8887 85.7189 58.94V58.06H86.2029V60.788H85.7189V60.15C85.7189 59.9593 85.6529 59.7723 85.5209 59.589C85.3889 59.3983 85.2129 59.248 84.9929 59.138C84.7802 59.0207 84.5565 58.962 84.3219 58.962C84.0872 58.962 83.8635 59.0463 83.6509 59.215C83.4382 59.3763 83.2659 59.6037 83.1339 59.897C83.0019 60.1903 82.9359 60.5203 82.9359 60.887V63.494H84.2669V64H81.1209V63.494ZM89.6949 63.45H90.9049V56.85H89.6949V56.3H93.1929V56.85H91.8289V59.886H96.0309V56.85H94.6779V56.3H98.1649V56.85H96.9659V63.45H98.1649V64H94.6779V63.45H96.0309V60.414H91.8289V63.45H93.1929V64H89.6949V63.45ZM98.6414 63.494H99.7964V59.006H98.6414V58.5H100.599V63.494H101.754V64H98.6414V63.494ZM99.4884 55.805H100.742L100.17 57.719H100.06L99.4884 55.805ZM102.376 61.855H102.827V62.229C102.827 62.4783 102.937 62.713 103.157 62.933C103.377 63.1457 103.67 63.318 104.037 63.45C104.404 63.5747 104.789 63.637 105.192 63.637C105.625 63.637 105.966 63.56 106.215 63.406C106.464 63.252 106.589 63.0393 106.589 62.768C106.589 62.5993 106.53 62.4563 106.413 62.339C106.303 62.2143 106.12 62.1043 105.863 62.009C105.614 61.9063 105.262 61.8073 104.807 61.712C104.257 61.5947 103.81 61.459 103.465 61.305C103.12 61.1437 102.86 60.9493 102.684 60.722C102.515 60.4947 102.431 60.2197 102.431 59.897C102.431 59.4277 102.607 59.061 102.959 58.797C103.311 58.5257 103.791 58.39 104.4 58.39C104.664 58.39 104.913 58.4157 105.148 58.467C105.39 58.511 105.614 58.577 105.819 58.665C105.988 58.731 106.164 58.83 106.347 58.962V58.016H106.842V60.447H106.347V60.051C106.347 59.8603 106.244 59.677 106.039 59.501C105.834 59.3177 105.573 59.171 105.258 59.061C104.943 58.951 104.631 58.896 104.323 58.896C103.92 58.896 103.604 58.973 103.377 59.127C103.15 59.2737 103.036 59.479 103.036 59.743C103.036 59.9777 103.124 60.1683 103.3 60.315C103.476 60.4543 103.777 60.5863 104.202 60.711C104.297 60.733 104.4 60.7587 104.51 60.788C104.62 60.81 104.734 60.8357 104.851 60.865C104.895 60.8797 104.939 60.8907 104.983 60.898C105.027 60.9053 105.071 60.9163 105.115 60.931C105.606 61.0557 106.002 61.1913 106.303 61.338C106.611 61.4847 106.835 61.6607 106.974 61.866C107.121 62.0713 107.194 62.317 107.194 62.603C107.194 63.087 107.011 63.461 106.644 63.725C106.277 63.989 105.775 64.121 105.137 64.121C104.924 64.121 104.708 64.1063 104.488 64.077C104.275 64.055 104.07 64.0183 103.872 63.967C103.417 63.8423 103.073 63.6773 102.838 63.472V64.187H102.376V61.855ZM110.805 64.088C110.218 64.088 109.767 63.9267 109.452 63.604C109.137 63.274 108.979 62.8157 108.979 62.229V59.006H107.725V58.5H108.781C108.928 58.5 109.045 58.4597 109.133 58.379C109.228 58.291 109.276 58.1627 109.276 57.994V57.059H109.782V58.5H112.257V59.006H109.782V62.317C109.782 62.7277 109.888 63.0393 110.101 63.252C110.321 63.4573 110.625 63.56 111.014 63.56C111.263 63.56 111.498 63.5233 111.718 63.45C111.945 63.3693 112.136 63.2703 112.29 63.153V63.714C112.114 63.8167 111.894 63.9047 111.63 63.978C111.366 64.0513 111.091 64.088 110.805 64.088ZM115.766 64.11C115.208 64.11 114.706 63.9853 114.259 63.736C113.811 63.4867 113.459 63.1457 113.203 62.713C112.946 62.273 112.818 61.7853 112.818 61.25C112.818 60.7073 112.946 60.2197 113.203 59.787C113.459 59.3543 113.811 59.0133 114.259 58.764C114.706 58.5147 115.208 58.39 115.766 58.39C116.33 58.39 116.836 58.5147 117.284 58.764C117.731 59.0133 118.083 59.358 118.34 59.798C118.596 60.2307 118.725 60.7147 118.725 61.25C118.725 61.7853 118.596 62.273 118.34 62.713C118.083 63.1457 117.727 63.4867 117.273 63.736C116.825 63.9853 116.323 64.11 115.766 64.11ZM115.766 63.604C116.169 63.604 116.532 63.5087 116.855 63.318C117.177 63.12 117.427 62.8413 117.603 62.482C117.779 62.1227 117.867 61.712 117.867 61.25C117.867 60.788 117.779 60.3773 117.603 60.018C117.427 59.6587 117.177 59.38 116.855 59.182C116.532 58.984 116.169 58.885 115.766 58.885C115.362 58.885 114.999 58.984 114.677 59.182C114.361 59.38 114.112 59.6587 113.929 60.018C113.753 60.3773 113.665 60.788 113.665 61.25C113.665 61.712 113.753 62.1227 113.929 62.482C114.112 62.8413 114.361 63.12 114.677 63.318C114.999 63.5087 115.362 63.604 115.766 63.604ZM119.417 63.494H120.429V59.006H119.417V58.5H121.199V59.567C121.338 59.2077 121.547 58.9253 121.826 58.72C122.104 58.5073 122.412 58.401 122.75 58.401C123.08 58.401 123.369 58.4743 123.619 58.621C123.692 58.665 123.762 58.7163 123.828 58.775C123.894 58.8337 123.956 58.8887 124.015 58.94V58.06H124.499V60.788H124.015V60.15C124.015 59.9593 123.949 59.7723 123.817 59.589C123.685 59.3983 123.509 59.248 123.289 59.138C123.076 59.0207 122.852 58.962 122.618 58.962C122.383 58.962 122.159 59.0463 121.947 59.215C121.734 59.3763 121.562 59.6037 121.43 59.897C121.298 60.1903 121.232 60.5203 121.232 60.887V63.494H122.563V64H119.417V63.494ZM125.384 63.824H125.879V64.319C125.879 64.5683 125.937 64.8067 126.055 65.034C126.172 65.2613 126.326 65.441 126.517 65.573C126.715 65.7123 126.916 65.782 127.122 65.782C127.364 65.782 127.562 65.6977 127.716 65.529C127.87 65.3677 127.947 65.1403 127.947 64.847V64.671C127.947 64.561 127.928 64.4437 127.892 64.319C127.855 64.1943 127.793 64.033 127.705 63.835C127.683 63.7763 127.657 63.7177 127.628 63.659C127.598 63.593 127.565 63.527 127.529 63.461L125.241 59.006H124.471V58.5H127.474V59.006H126.209L128.09 62.79C128.112 62.834 128.13 62.8817 128.145 62.933C128.167 62.9843 128.189 63.0393 128.211 63.098C128.233 63.1493 128.258 63.23 128.288 63.34C128.302 63.2593 128.317 63.186 128.332 63.12C128.354 63.054 128.379 62.988 128.409 62.922L130.081 59.006H128.684V58.5H131.412V59.006H130.631L128.783 63.285C128.775 63.2923 128.768 63.3033 128.761 63.318C128.761 63.3253 128.761 63.3363 128.761 63.351C128.687 63.527 128.636 63.6847 128.607 63.824C128.577 63.9633 128.563 64.1173 128.563 64.286V64.517C128.563 64.869 128.5 65.1807 128.376 65.452C128.251 65.7307 128.079 65.9433 127.859 66.09C127.639 66.2367 127.386 66.31 127.1 66.31C126.931 66.31 126.766 66.2843 126.605 66.233C126.443 66.1817 126.297 66.112 126.165 66.024C126.062 65.958 125.967 65.8773 125.879 65.782V66.387H125.384V63.824Z" fill="#242424"/>
</svg>
